<svg class="dynamic_loading" xmlns="http://www.w3.org/2000/svg" xmlns:xlink="http://www.w3.org/1999/xlink" style="margin:auto;background:#fff;display:block;" width="294px" height="294px" viewBox="0 0 100 100" preserveAspectRatio="xMidYMid">
    <g transform="rotate(0 50 50)">
        <rect x="49.5" y="21.5" rx="0.5" ry="10.5" width="1" height="21" fill="#000000">
            <animate attributeName="opacity" values="1;0" keyTimes="0;1" dur="1.3157894736842106s" begin="-1.2280701754385965s" repeatCount="indefinite"></animate>
        </rect>
    </g><g transform="rotate(24 50 50)">
    <rect x="49.5" y="21.5" rx="0.5" ry="10.5" width="1" height="21" fill="#000000">
        <animate attributeName="opacity" values="1;0" keyTimes="0;1" dur="1.3157894736842106s" begin="-1.1403508771929824s" repeatCount="indefinite"></animate>
    </rect>
</g><g transform="rotate(48 50 50)">
    <rect x="49.5" y="21.5" rx="0.5" ry="10.5" width="1" height="21" fill="#000000">
        <animate attributeName="opacity" values="1;0" keyTimes="0;1" dur="1.3157894736842106s" begin="-1.0526315789473684s" repeatCount="indefinite"></animate>
    </rect>
</g><g transform="rotate(72 50 50)">
    <rect x="49.5" y="21.5" rx="0.5" ry="10.5" width="1" height="21" fill="#000000">
        <animate attributeName="opacity" values="1;0" keyTimes="0;1" dur="1.3157894736842106s" begin="-0.9649122807017544s" repeatCount="indefinite"></animate>
    </rect>
</g><g transform="rotate(96 50 50)">
    <rect x="49.5" y="21.5" rx="0.5" ry="10.5" width="1" height="21" fill="#000000">
        <animate attributeName="opacity" values="1;0" keyTimes="0;1" dur="1.3157894736842106s" begin="-0.8771929824561403s" repeatCount="indefinite"></animate>
    </rect>
</g><g transform="rotate(120 50 50)">
    <rect x="49.5" y="21.5" rx="0.5" ry="10.5" width="1" height="21" fill="#000000">
        <animate attributeName="opacity" values="1;0" keyTimes="0;1" dur="1.3157894736842106s" begin="-0.7894736842105263s" repeatCount="indefinite"></animate>
    </rect>
</g><g transform="rotate(144 50 50)">
    <rect x="49.5" y="21.5" rx="0.5" ry="10.5" width="1" height="21" fill="#000000">
        <animate attributeName="opacity" values="1;0" keyTimes="0;1" dur="1.3157894736842106s" begin="-0.7017543859649122s" repeatCount="indefinite"></animate>
    </rect>
</g><g transform="rotate(168 50 50)">
    <rect x="49.5" y="21.5" rx="0.5" ry="10.5" width="1" height="21" fill="#000000">
        <animate attributeName="opacity" values="1;0" keyTimes="0;1" dur="1.3157894736842106s" begin="-0.6140350877192983s" repeatCount="indefinite"></animate>
    </rect>
</g><g transform="rotate(192 50 50)">
    <rect x="49.5" y="21.5" rx="0.5" ry="10.5" width="1" height="21" fill="#000000">
        <animate attributeName="opacity" values="1;0" keyTimes="0;1" dur="1.3157894736842106s" begin="-0.5263157894736842s" repeatCount="indefinite"></animate>
    </rect>
</g><g transform="rotate(216 50 50)">
    <rect x="49.5" y="21.5" rx="0.5" ry="10.5" width="1" height="21" fill="#000000">
        <animate attributeName="opacity" values="1;0" keyTimes="0;1" dur="1.3157894736842106s" begin="-0.43859649122807015s" repeatCount="indefinite"></animate>
    </rect>
</g><g transform="rotate(240 50 50)">
    <rect x="49.5" y="21.5" rx="0.5" ry="10.5" width="1" height="21" fill="#000000">
        <animate attributeName="opacity" values="1;0" keyTimes="0;1" dur="1.3157894736842106s" begin="-0.3508771929824561s" repeatCount="indefinite"></animate>
    </rect>
</g><g transform="rotate(264 50 50)">
    <rect x="49.5" y="21.5" rx="0.5" ry="10.5" width="1" height="21" fill="#000000">
        <animate attributeName="opacity" values="1;0" keyTimes="0;1" dur="1.3157894736842106s" begin="-0.2631578947368421s" repeatCount="indefinite"></animate>
    </rect>
</g><g transform="rotate(288 50 50)">
    <rect x="49.5" y="21.5" rx="0.5" ry="10.5" width="1" height="21" fill="#000000">
        <animate attributeName="opacity" values="1;0" keyTimes="0;1" dur="1.3157894736842106s" begin="-0.17543859649122806s" repeatCount="indefinite"></animate>
    </rect>
</g><g transform="rotate(312 50 50)">
    <rect x="49.5" y="21.5" rx="0.5" ry="10.5" width="1" height="21" fill="#000000">
        <animate attributeName="opacity" values="1;0" keyTimes="0;1" dur="1.3157894736842106s" begin="-0.08771929824561403s" repeatCount="indefinite"></animate>
    </rect>
</g><g transform="rotate(336 50 50)">
    <rect x="49.5" y="21.5" rx="0.5" ry="10.5" width="1" height="21" fill="#000000">
        <animate attributeName="opacity" values="1;0" keyTimes="0;1" dur="1.3157894736842106s" begin="0s" repeatCount="indefinite"></animate>
    </rect>
</g>
</svg>